<?xml version="1.0" encoding="UTF-8" standalone="no"?>
<!DOCTYPE svg PUBLIC "-//W3C//DTD SVG 1.1//EN"
 "http://www.w3.org/Graphics/SVG/1.1/DTD/svg11.dtd">
<!-- Generated by graphviz version 2.38.0 (20140413.2041)
 -->
<!-- Title: H Pages: 1 -->
<svg width="657pt" height="364pt"
 viewBox="0.00 0.00 657.25 364.00" xmlns="http://www.w3.org/2000/svg" xmlns:xlink="http://www.w3.org/1999/xlink">
<g id="graph0" class="graph" transform="scale(1 1) rotate(0) translate(4 360)">
<title>H</title>
<polygon fill="white" stroke="none" points="-4,4 -4,-360 653.246,-360 653.246,4 -4,4"/>
<!-- event1 -->
<g id="node1" class="node"><title>event1</title>
<ellipse fill="none" stroke="black" cx="42.2463" cy="-91" rx="42.4939" ry="18"/>
<text text-anchor="middle" x="42.2463" y="-87.3" font-family="sans" font-size="14.00">event1</text>
</g>
<!-- X server -->
<g id="node2" class="node"><title>X server</title>
<ellipse fill="none" stroke="black" cx="179.246" cy="-18" rx="48.9926" ry="18"/>
<text text-anchor="middle" x="179.246" y="-14.3" font-family="sans" font-size="14.00">X server</text>
</g>
<!-- event1&#45;&gt;X server -->
<g id="edge1" class="edge"><title>event1&#45;&gt;X server</title>
<path fill="none" stroke="black" d="M68.0149,-76.6454C89.2274,-65.6521 119.543,-49.9413 143.169,-37.697"/>
<polygon fill="black" stroke="black" points="144.919,-40.7322 152.187,-33.0233 141.698,-34.5172 144.919,-40.7322"/>
</g>
<!-- event2 -->
<g id="node3" class="node"><title>event2</title>
<ellipse fill="none" stroke="black" cx="144.246" cy="-91" rx="42.4939" ry="18"/>
<text text-anchor="middle" x="144.246" y="-87.3" font-family="sans" font-size="14.00">event2</text>
</g>
<!-- event2&#45;&gt;X server -->
<g id="edge2" class="edge"><title>event2&#45;&gt;X server</title>
<path fill="none" stroke="black" d="M152.541,-73.174C156.622,-64.8957 161.636,-54.7234 166.214,-45.4377"/>
<polygon fill="black" stroke="black" points="169.486,-46.7154 170.768,-36.1984 163.207,-43.6203 169.486,-46.7154"/>
</g>
<!-- event0 -->
<g id="node4" class="node"><title>event0</title>
<ellipse fill="none" stroke="black" cx="273.246" cy="-338" rx="42.4939" ry="18"/>
<text text-anchor="middle" x="273.246" y="-334.3" font-family="sans" font-size="14.00">event0</text>
</g>
<!-- event0&#45;&gt;X server -->
<g id="edge3" class="edge"><title>event0&#45;&gt;X server</title>
<path fill="none" stroke="black" stroke-dasharray="1,5" d="M250.941,-322.673C234.233,-310.014 214.246,-289.88 214.246,-266 214.246,-266 214.246,-266 214.246,-90 214.246,-73.4744 206.524,-56.8081 198.334,-43.7797"/>
<polygon fill="black" stroke="black" points="201.169,-41.7242 192.678,-35.3876 195.364,-45.6362 201.169,-41.7242"/>
<text text-anchor="middle" x="277.746" y="-174.3" font-family="sans" font-size="14.00">normal event flow</text>
</g>
<!-- hijacker -->
<g id="node5" class="node"><title>hijacker</title>
<ellipse fill="none" stroke="black" cx="426.246" cy="-265" rx="45.4919" ry="18"/>
<text text-anchor="middle" x="426.246" y="-261.3" font-family="sans" font-size="14.00">hijacker</text>
</g>
<!-- event0&#45;&gt;hijacker -->
<g id="edge4" class="edge"><title>event0&#45;&gt;hijacker</title>
<path fill="none" stroke="black" d="M300.953,-324.142C325.527,-312.739 361.627,-295.986 388.774,-283.389"/>
<polygon fill="black" stroke="black" points="390.371,-286.507 397.968,-279.122 387.424,-280.157 390.371,-286.507"/>
</g>
<!-- state machine -->
<g id="node6" class="node"><title>state machine</title>
<ellipse fill="none" stroke="black" cx="433.246" cy="-178" rx="74.187" ry="18"/>
<text text-anchor="middle" x="433.246" y="-174.3" font-family="sans" font-size="14.00">state machine</text>
</g>
<!-- hijacker&#45;&gt;state machine -->
<g id="edge5" class="edge"><title>hijacker&#45;&gt;state machine</title>
<path fill="none" stroke="black" d="M425.956,-246.839C425.951,-237.173 426.21,-224.89 427.246,-214 427.492,-211.422 427.818,-208.748 428.192,-206.079"/>
<polygon fill="black" stroke="black" points="431.677,-206.449 429.802,-196.021 424.765,-205.342 431.677,-206.449"/>
<text text-anchor="middle" x="481.246" y="-217.8" font-family="sans" font-size="14.00">ASETNIOP keys</text>
</g>
<!-- uinput -->
<g id="node7" class="node"><title>uinput</title>
<ellipse fill="none" stroke="black" cx="425.246" cy="-91" rx="40.0939" ry="18"/>
<text text-anchor="middle" x="425.246" y="-87.3" font-family="sans" font-size="14.00">uinput</text>
</g>
<!-- hijacker&#45;&gt;uinput -->
<g id="edge6" class="edge"><title>hijacker&#45;&gt;uinput</title>
<path fill="none" stroke="black" d="M471.163,-261.654C494.278,-257.889 520.609,-249.074 535.246,-229 561.956,-192.371 562.004,-163.594 535.246,-127 521.449,-108.131 497.39,-99.191 475.284,-95.0487"/>
<polygon fill="black" stroke="black" points="475.734,-91.5764 465.309,-93.4647 474.636,-98.4898 475.734,-91.5764"/>
<text text-anchor="middle" x="602.246" y="-174.3" font-family="sans" font-size="14.00">all other keys</text>
</g>
<!-- state machine&#45;&gt;uinput -->
<g id="edge7" class="edge"><title>state machine&#45;&gt;uinput</title>
<path fill="none" stroke="black" d="M429.217,-160.004C428.037,-154.314 426.892,-147.914 426.246,-142 425.449,-134.693 425.07,-126.751 424.919,-119.393"/>
<polygon fill="black" stroke="black" points="428.417,-119.145 424.84,-109.173 421.417,-119.199 428.417,-119.145"/>
<text text-anchor="middle" x="480.746" y="-130.8" font-family="sans" font-size="14.00">processed input</text>
</g>
<!-- uinput&#45;&gt;X server -->
<g id="edge8" class="edge"><title>uinput&#45;&gt;X server</title>
<path fill="none" stroke="black" d="M392.325,-80.4983C349.578,-68.1607 274.698,-46.5491 226.052,-32.5091"/>
<polygon fill="black" stroke="black" points="226.969,-29.1309 216.391,-29.7206 225.028,-35.8564 226.969,-29.1309"/>
</g>
</g>
</svg>
