<?xml version="1.0" encoding="UTF-8" standalone="no"?>
<!DOCTYPE svg PUBLIC "-//W3C//DTD SVG 1.1//EN"
 "http://www.w3.org/Graphics/SVG/1.1/DTD/svg11.dtd">
<!-- Generated by graphviz version 2.38.0 (20140413.2041)
 -->
<!-- Title: G Pages: 1 -->
<svg width="296pt" height="116pt"
 viewBox="0.00 0.00 296.49 116.00" xmlns="http://www.w3.org/2000/svg" xmlns:xlink="http://www.w3.org/1999/xlink">
<g id="graph0" class="graph" transform="scale(1 1) rotate(0) translate(4 112)">
<title>G</title>
<polygon fill="white" stroke="none" points="-4,4 -4,-112 292.493,-112 292.493,4 -4,4"/>
<!-- event0 -->
<g id="node1" class="node"><title>event0</title>
<ellipse fill="none" stroke="black" cx="42.2463" cy="-90" rx="42.4939" ry="18"/>
<text text-anchor="middle" x="42.2463" y="-86.3" font-family="sans" font-size="14.00">event0</text>
</g>
<!-- X server -->
<g id="node2" class="node"><title>X server</title>
<ellipse fill="none" stroke="black" cx="144.246" cy="-18" rx="48.9926" ry="18"/>
<text text-anchor="middle" x="144.246" y="-14.3" font-family="sans" font-size="14.00">X server</text>
</g>
<!-- event0&#45;&gt;X server -->
<g id="edge1" class="edge"><title>event0&#45;&gt;X server</title>
<path fill="none" stroke="black" d="M63.8778,-74.1548C78.2856,-64.2671 97.4369,-51.124 113.43,-40.1481"/>
<polygon fill="black" stroke="black" points="115.676,-42.852 121.941,-34.3077 111.715,-37.0804 115.676,-42.852"/>
</g>
<!-- event1 -->
<g id="node3" class="node"><title>event1</title>
<ellipse fill="none" stroke="black" cx="144.246" cy="-90" rx="42.4939" ry="18"/>
<text text-anchor="middle" x="144.246" y="-86.3" font-family="sans" font-size="14.00">event1</text>
</g>
<!-- event1&#45;&gt;X server -->
<g id="edge2" class="edge"><title>event1&#45;&gt;X server</title>
<path fill="none" stroke="black" d="M144.246,-71.6966C144.246,-63.9827 144.246,-54.7125 144.246,-46.1124"/>
<polygon fill="black" stroke="black" points="147.746,-46.1043 144.246,-36.1043 140.746,-46.1044 147.746,-46.1043"/>
</g>
<!-- event2 -->
<g id="node4" class="node"><title>event2</title>
<ellipse fill="none" stroke="black" cx="246.246" cy="-90" rx="42.4939" ry="18"/>
<text text-anchor="middle" x="246.246" y="-86.3" font-family="sans" font-size="14.00">event2</text>
</g>
<!-- event2&#45;&gt;X server -->
<g id="edge3" class="edge"><title>event2&#45;&gt;X server</title>
<path fill="none" stroke="black" d="M224.615,-74.1548C210.207,-64.2671 191.056,-51.124 175.062,-40.1481"/>
<polygon fill="black" stroke="black" points="176.777,-37.0804 166.552,-34.3077 172.816,-42.852 176.777,-37.0804"/>
</g>
</g>
</svg>
